<svg width="447" height="285" viewBox="0 0 447 285" fill="none" xmlns="http://www.w3.org/2000/svg">
<path d="M138.654 6.52613C136.52 3.91566 138.379 0 141.753 0H217.488C218.665 0 219.783 0.51845 220.544 1.41719L337.2 139.323C338.46 140.813 338.46 142.994 337.2 144.483L220.544 282.389C219.784 283.288 218.665 283.806 217.488 283.806H141.753C138.379 283.806 136.52 279.891 138.654 277.28L247.286 144.432C248.49 142.96 248.49 140.846 247.286 139.374L138.654 6.52613Z" fill="url(#paint0_linear_1_723)" fill-opacity="0.1"/>
<path fill-rule="evenodd" clip-rule="evenodd" d="M442.991 0C446.365 0 448.225 3.91566 446.09 6.52613L350.631 123.264L306.711 69.3784L364.201 1.41719C364.961 0.51845 366.079 0 367.257 0H442.991ZM305.649 213.172L364.201 282.389C364.961 283.288 366.079 283.806 367.257 283.806H442.991C446.365 283.806 448.225 279.891 446.09 277.28L350.072 159.858L305.649 213.172Z" fill="url(#paint1_linear_1_723)" fill-opacity="0.1"/>
<path fill-rule="evenodd" clip-rule="evenodd" d="M43.2982 0C39.9834 0 37.2963 2.68446 37.2963 5.99591V6.23277L37.2961 6.28156V31.7845H1.29601C1.02702 31.7845 0.80896 32.0026 0.80896 32.2716C0.80896 32.5406 1.02702 32.7586 1.29601 32.7586H37.2961V58.2461C37.2961 61.5576 39.9832 64.242 43.298 64.242H139.953C145.134 64.242 147.88 58.1247 144.435 54.259L98.1224 2.29444C97.2189 1.28063 96.0055 0.611076 94.6874 0.377659C94.0239 0.130557 93.3148 0 92.591 0H43.2982ZM65.3106 114.217C65.3106 110.905 67.9977 108.221 71.3124 108.221H180.55C182.344 108.221 184.043 109.022 185.183 110.405L208.249 138.386C210.074 140.6 210.074 143.795 208.249 146.009L185.183 173.99C184.043 175.373 182.344 176.174 180.55 176.174H71.3125C67.9977 176.174 65.3106 173.49 65.3106 170.178V142.682H29.2843C29.0153 142.682 28.7972 142.463 28.7972 142.195C28.7972 141.926 29.0153 141.707 29.2843 141.707H65.3106V114.217ZM43.2587 284.08C39.944 284.08 37.2568 281.396 37.2568 278.084V252.597H1.29601C1.02702 252.597 0.80896 252.379 0.80896 252.11C0.80896 251.841 1.02702 251.623 1.29601 251.623H37.2568V226.12C37.2568 222.808 39.944 220.124 43.2587 220.124H138.066C143.222 220.124 145.978 226.191 142.583 230.068L97.0684 282.033C95.9287 283.334 94.2822 284.08 92.5515 284.08H43.2587Z" fill="url(#paint2_linear_1_723)" fill-opacity="0.1"/>
<defs>
<linearGradient id="paint0_linear_1_723" x1="237.945" y1="0" x2="237.945" y2="283.806" gradientUnits="userSpaceOnUse">
<stop stop-color="white"/>
<stop offset="0.775199" stop-color="white" stop-opacity="0"/>
</linearGradient>
<linearGradient id="paint1_linear_1_723" x1="376.324" y1="0" x2="376.324" y2="283.806" gradientUnits="userSpaceOnUse">
<stop stop-color="white"/>
<stop offset="0.775199" stop-color="white" stop-opacity="0"/>
</linearGradient>
<linearGradient id="paint2_linear_1_723" x1="105.214" y1="0" x2="105.214" y2="284.08" gradientUnits="userSpaceOnUse">
<stop stop-color="white"/>
<stop offset="0.775199" stop-color="white" stop-opacity="0"/>
</linearGradient>
</defs>
</svg>
